<?xml version="1.0" encoding="utf-8"?>
<!-- Generator: Adobe Illustrator 16.0.0, SVG Export Plug-In . SVG Version: 6.00 Build 0)  -->
<!DOCTYPE svg PUBLIC "-//W3C//DTD SVG 1.1//EN" "http://www.w3.org/Graphics/SVG/1.1/DTD/svg11.dtd">
<svg version="1.1" id="Ebene_1" xmlns="http://www.w3.org/2000/svg" xmlns:xlink="http://www.w3.org/1999/xlink" x="0px" y="0px"
	 width="595px" height="180px" viewBox="-14.035 -16.3 595 180" enable-background="new -14.035 -16.3 595 180"
	 xml:space="preserve">
<path fill="#004577" d="M16.78,78.89c-2.699,0-4.899,2.22-4.899,4.939v10.46h9.79V83.83C21.68,81.11,19.48,78.89,16.78,78.89z
	 M19.26,91.88h-4.95v-8.05c0-1.39,1.11-2.52,2.47-2.52c1.37,0,2.471,1.13,2.471,2.52v8.05H19.26z M176.28,47.84
	c0,7.391,2.711,14.221,14.671,14.221c11.729,0,14.39-7.61,14.39-14.38V26.25h5.3v-2.43h-13.06v2.43h5.33v18.66
	c0,3.05,0,7.45-1.811,10.15c-2.14,3.159-6.2,4.58-9.87,4.58c-3.72,0-7.45-1.69-8.75-5.421c-0.68-1.979-0.899-6.1-0.899-8.289V26.25
	h5.31v-2.43h-15.92v2.43h5.31V47.84L176.28,47.84z M556.369,85.65L556.369,85.65L543,114.88L529.46,85.65l0,0v-0.01h-10.671v2.42
	h5.351v32.51h-5.351V123h13.101v-2.42h-5.34v-4.22h0.029c0-0.18-0.01-0.32-0.01-0.521v-24.1h0.12L541.02,123h0.9l14.27-31.26h0.11
	v24.1c0,0.2-0.011,0.36-0.011,0.54v4.19h-5.31V123h15.94v-2.42h-5.301v-3.97c0-0.26-0.01-0.48-0.01-0.76V92.82
	c0-0.29,0.01-0.51,0.01-0.771V88.07h5.301v-2.42H556.369L556.369,85.65z M483.32,120.58h-17.54l0.01-15.85h12.641v5.31h2.43V96.98
	h-2.43v5.319h-12.641V88.07h15.65v3.83h2.39h0.021l0,0h0.01v-6.26l0,0l0,0h-2.43l0,0h-26.23v2.43h5.28c0,0,0,31.64,0,32.51h-5.28
	V123h28.11h2.43v-6.43h-2.43v4.01H483.32z M59.37,126.98H57.2l-2.311,2.3l0.98,0.979l1.08-1.079v7.979H55.44v1.38h4.99h0.42v-1.38
	h-1.47v-10.18H59.37z M385.94,43.04c4.91-1.02,9.25-4.05,9.25-9.47c0-3.271-1.96-9.75-12.97-9.75h-16.19v2.43h5.311v32.54h-5.311
	v2.43h15.91v-2.43h-5.31V43.78h3.83l12.659,17.38v0.05h7.801v-2.43h-3.65L385.94,43.04z M377.88,41.98h-1.24l0.01-15.73
	c0,0,3.04,0,4.63,0c4.57,0,7.601,3.03,7.601,7.55C388.88,40.06,383.24,41.98,377.88,41.98z M430.159,85.65L430.159,85.65l-0.01,1.03
	l0.01,1.39h5.29v14.68h-21.8V88.07h5.311v-2.43h-15.921v2.43h5.301v32.51h-5.301V123h15.921v-2.43h-5.311v-15.4h21.8v15.4h-5.29v0.5
	h-0.01v1.91l0,0V123h15.92v-2.43h-5.3v-32.5h5.3v-2.43L430.159,85.65L430.159,85.65z M505.52,29.92c1.689,0,3.05-1.359,3.05-3.05
	c0-1.689-1.35-3.04-3.05-3.04s-3.05,1.351-3.05,3.04C502.47,28.57,503.82,29.92,505.52,29.92z M523.92,29.92
	c1.689,0,3.039-1.359,3.039-3.05c0-1.689-1.35-3.04-3.039-3.04c-1.7,0-3.051,1.351-3.051,3.04
	C520.869,28.57,522.22,29.92,523.92,29.92z M538.079,26.25h10.551V58.8h-5.29v2.42h15.949V58.8h-5.369V26.25h10.58V30.1h2.43V23.83
	h-30.9h-0.38V30.1h2.43V26.25z M507.36,61.219L507.36,61.219l0.01-1.079h-0.01V58.8h-4.68l3.77-9.09h14.601L525,58.8h-4.48v1.341
	l0,0v1.09l0,0l0,0h14.72V58.8h-4.78L515.88,23.83h-0.99l-14.91,34.96h-4.34v2.43H507.36L507.36,61.219z M513.85,32.43l6.28,14.85
	h-12.681L513.85,32.43z M303.82,61.219h1.01l12.75-31.14c0.5-1.21,1.091-2.74,1.521-3.83h4.35v-2.43h-11.54v2.43h4.66
	c-0.7,1.76-1.88,4.72-2.189,5.47l-8.58,21.04l-9.2-21.27c-0.38-0.88-1.56-3.58-2.28-5.24h4.891v-2.43h-15.29v2.43h4.71
	L303.82,61.219z M359.59,61.219v-6.43h-2.431v4.01h-17.54l0.011-15.85h12.64v5.31h2.43V35.2h-2.43v5.32h-12.64V26.25h15.649v3.87
	h2.391h0.02l0,0h0.01v-6.29l0,0l0,0h-2.43l0,0h-26.23v2.43h5.28c0,0,0,31.681,0,32.54h-5.28v2.431h28.11h2.44V61.219z
	 M409.18,61.219L409.18,61.219h0.03v-5.3c2.27,3.66,6.279,6.12,10.899,6.12c0.24,0,0.47,0,0.7,0c7.16,0,11.79-4.899,11.79-10.77
	c0-11.061-20.43-12.41-20.43-20.25c0-3.38,3.27-5.801,6.489-5.801c6.19,0,10.021,4.761,10.431,10.671v0.06h2.43V23.82h-2.43v4.68
	c-2.17-3.3-5.891-5.5-10.141-5.5h-0.06c-5.87,0-11.061,4.22-11.061,9.98c0,11.17,19.86,12.18,19.86,20.76c0,4.12-3.67,6.1-7.439,6.1
	c-3.311,0-10.101-1.569-11.03-10.399v-0.25h-2.431v12.029h0.37H409.18z M456.17,58.79h-5.351V26.25h5.351v-2.43h-15.91v2.43h5.29
	V58.8h-5.29v2.431h15.91V58.79z M494.98,30.1V23.83h-30.9h-0.38V30.1h2.431V26.26h10.55V58.8h-5.29v2.42h15.95V58.8h-5.37V26.25
	h10.58V30.1H494.98z M112.48,56.6h-9.79v14.52h9.79V56.6z M110.06,68.71h-4.95v-9.68h4.95V68.71z M73.28,0.43
	C32.87,0.43,0,33.3,0,73.7s32.87,73.28,73.279,73.28c40.41,0,73.28-32.87,73.28-73.28C146.55,33.3,113.68,0.43,73.28,0.43z
	 M2.42,73.7c0-4.26,0.399-8.43,1.12-12.49h23.05v12.61H2.42C2.42,73.78,2.42,73.74,2.42,73.7z M4.88,91.88H4.78
	C3.88,88.48,3.23,84.98,2.84,81.4c1.15,0.22,2.04,1.2,2.04,2.43V91.88z M5.47,94.29H7.3V83.83c0-2.649-2.08-4.8-4.67-4.92
	c-0.061-0.88-0.12-1.77-0.15-2.66h24.11v20.82H6.38C6.06,96.15,5.75,95.23,5.47,94.29z M14.31,112.99v-5.89
	c0-1.391,1.11-2.521,2.47-2.521c1.37,0,2.471,1.13,2.471,2.521v8.05h-3.44C15.31,114.43,14.8,113.719,14.31,112.99z M20.17,120.59
	c-0.87-0.979-1.71-1.989-2.521-3.02h4.03V107.1c0-2.721-2.2-4.94-4.9-4.94c-2.699,0-4.899,2.22-4.899,4.94v1.97
	c-1.771-3.061-3.311-6.26-4.61-9.58H26.58v21.1H20.17z M73.28,144.56c-19.96,0-37.989-8.271-50.859-21.551h11.64l0,0h8.72l0,0h12.66
	l0,0h8.721l0,0H82.39v0.011h8.72V123h12.66v0.01h8.721V123h11.64C111.26,136.29,93.24,144.56,73.28,144.56z M73.78,32.53
	c12.311,0,22.601,6.84,27.681,12.7l0.46,0.33l14.63,5.92H30.28l15.351-5.92l0.479-0.34C51.19,39.37,61.48,32.53,73.78,32.53z
	 M65.79,31V28.68c1.38-1.5,4.33-2.49,7.529-2.49c3.11,0,6.03,0.95,7.44,2.399v2.19c-2.23-0.43-4.56-0.67-6.98-0.67
	C71,30.11,68.33,30.44,65.79,31z M117.5,53.9v19.92H29.01V53.9H117.5z M117.5,76.25L117.5,76.25L117.5,76.25l0.01,20.82h-5.02v-9.96
	l0,0v-3.26c0-2.721-2.2-4.94-4.891-4.94c-2.7,0-4.899,2.22-4.899,4.94v3.26h-7.37V83.84c0-2.699-2.2-4.89-4.9-4.89
	s-4.9,2.2-4.9,4.89v3.271H78.16V83.84c0-2.699-2.2-4.89-4.9-4.89s-4.9,2.2-4.9,4.89v3.271h-7.37v-3.32
	c0-2.7-2.199-4.899-4.899-4.899S51.2,81.09,51.2,83.79v3.32h-7.37v-3.32c0-2.7-2.2-4.899-4.9-4.899s-4.9,2.199-4.9,4.899v13.28
	h-5.05V76.25l0,0l0,0H117.5z M117.52,99.49l0.01,21.1H112.5v-21.1H117.52z M103.77,97.07L103.77,97.07H91.11l0,0h-8.72l0,0H36.48
	v-7.54h73.59v7.54H103.77z M110.07,99.49v21.1h-3.88v-21.1H110.07z M103.77,99.49v21.1H91.11v-21.1H103.77z M88.69,99.49v21.1h-3.88
	v-21.1H88.69z M82.39,99.49v21.1H64.16v-21.1H82.39z M61.74,99.49v21.1H57.86v-21.1H61.74z M55.44,99.49v21.1H42.78v-21.1H55.44z
	 M40.36,99.49v21.1h-3.88v-21.1H40.36z M36.48,87.11v-3.32c0-1.37,1.11-2.479,2.471-2.479c1.359,0,2.47,1.109,2.47,2.479v3.32H36.48
	z M53.64,87.11v-3.32c0-1.37,1.11-2.479,2.48-2.479S58.6,82.42,58.6,83.79v3.32H53.64z M70.8,87.11V83.84
	c0-1.37,1.11-2.47,2.47-2.47c1.36,0,2.471,1.11,2.471,2.47v3.271H70.8z M87.96,87.11V83.84c0-1.37,1.109-2.47,2.47-2.47
	s2.47,1.11,2.47,2.47v3.271H87.96z M105.12,87.11v-3.26c0-1.391,1.109-2.521,2.479-2.521s2.48,1.13,2.48,2.521v3.26H105.12z
	 M34.06,99.49v21.1h-5.05v-21.1H34.06z M132.24,112.98c-0.49,0.729-1,1.45-1.511,2.16h-3.439v-8.051c0-1.39,1.109-2.52,2.47-2.52
	s2.48,1.13,2.48,2.52V112.98z M134.66,109.07v-1.97c0-2.721-2.2-4.94-4.9-4.94s-4.9,2.22-4.9,4.94v10.47h4.03
	c-0.81,1.03-1.649,2.04-2.52,3.02h-6.44l-0.01-21.1h19.33C137.97,102.81,136.43,106.01,134.66,109.07z M141.77,91.88h-0.1v-8.05
	c0-1.229,0.89-2.21,2.04-2.43C143.32,84.98,142.67,88.48,141.77,91.88z M143.92,78.91c-2.59,0.12-4.67,2.271-4.67,4.92v10.46h1.83
	c-0.28,0.93-0.59,1.86-0.91,2.771h-20.23l-0.01-20.82h24.14C144.04,77.14,143.98,78.03,143.92,78.91z M144.13,73.7
	c0,0.04,0,0.08,0,0.13h-24.2v-3.21v-9.41h23.09C143.73,65.27,144.13,69.44,144.13,73.7z M119.93,58.8V53.9h2.85v-2.51l-19.67-7.96
	c-4.26-4.83-11.26-9.86-19.92-12.101v-3.62l-0.26-0.33c-1.61-2.01-4.77-3.319-8.43-3.56V9.44h-2.42v14.38
	c-3.681,0.26-6.92,1.649-8.45,3.7l-0.24,0.319v3.771c-8.18,2.359-14.8,7.16-18.89,11.8l-20.7,7.98v2.51h2.81V58.8H4
	C10.85,26.82,39.26,2.85,73.28,2.85C107.3,2.85,135.7,26.83,142.55,58.8H119.93z M198.08,85.65L198.08,85.65l-0.011,1.03l0.011,1.39
	h5.29v14.68H181.57V88.07h5.311v-2.43h-15.92v2.43h5.3v32.51h-5.3V123h15.92v-2.43h-5.311v-15.4h21.801v15.4h-5.29v0.5h-0.011v1.91
	l0,0V123h15.921v-2.43h-5.301v-32.5h5.301v-2.43L198.08,85.65L198.08,85.65z M95.32,56.6h-9.79v14.52h9.79V56.6z M92.9,68.71H87.95
	v-9.68H92.9V68.71z M134.66,83.83c0-2.72-2.2-4.939-4.9-4.939s-4.9,2.22-4.9,4.939v10.46h9.79V83.83H134.66z M132.24,91.88h-4.95
	v-8.05c0-1.39,1.109-2.52,2.47-2.52s2.48,1.13,2.48,2.52V91.88z M43.83,56.6h-9.79v14.52h9.79V56.6z M41.41,68.71h-4.95v-9.68h4.95
	V68.71z M78.18,61.52c0-2.7-2.2-4.9-4.9-4.9c-2.699,0-4.899,2.2-4.899,4.9v9.6h9.79v-9.6H78.18z M75.76,68.71h-4.95v-7.18
	c0-1.37,1.11-2.48,2.47-2.48c1.36,0,2.471,1.11,2.471,2.48v7.18H75.76z M217.65,58.79v2.43h13.03v-2.43h-5.3c0-0.859,0-27.1,0-27.1
	l24.6,30.149H251c0,0,0-34.72,0-35.58h5.3v-2.43H243.24v2.43h5.33c0,0.87,0,25.681,0,25.681l-22.88-28.11H216.7v2.43h4.149
	c0.73,0.87,2.13,2.53,2.101,2.53c0,0-0.011,29.15-0.011,30.01h-5.29V58.79z M381.92,88.05h5.33c0,0.87,0,25.681,0,25.681
	L364.369,85.63h-9v2.431h4.15c0.73,0.87,2.13,2.529,2.11,2.529c0,0-0.011,29.13-0.011,29.99h-5.29V123h13.03v-2.43h-5.3
	c0-0.86,0-27.08,0-27.08l24.6,30.15h1.021c0,0,0-34.721,0-35.58h5.3V85.63h-13.06V88.05L381.92,88.05z M61,56.6h-9.79v14.52H61V56.6
	z M58.58,68.71h-4.95v-9.68h4.95V68.71z M291.91,85.65L291.91,85.65l-0.011,1.03l0.011,1.39h5.29v14.68H275.4V88.07h5.311v-2.43
	H264.8v2.43h5.3v32.51h-5.3V123h15.92v-2.43h-5.31v-15.4h21.8v15.4h-5.29v0.5h-0.01v1.91l0,0V123h15.919v-2.43h-5.3v-32.5h5.3v-2.43
	L291.91,85.65L291.91,85.65z M345.369,120.58h-17.54l0.011-15.85h12.64v5.31h2.43V96.98h-2.43v5.319h-12.64V88.07h15.649v3.83h2.391
	h0.02l0,0h0.01v-6.26l0,0l0,0h-2.43l0,0H317.25v2.43h5.279c0,0,0,31.64,0,32.51h-5.279V123h28.109h2.43v-6.43h-2.43v4.01H345.369z
	 M79.47,126.98H77.3l-2.31,2.3l0.979,0.979l1.08-1.079v7.979h-1.51v1.38h4.989h0.421v-1.38H79.48v-10.18H79.47z M239.4,84.82
	c-11.51,0-18.92,9.07-18.92,19.51c0,10.44,7.42,19.521,18.92,19.521c11.511,0,18.931-9.08,18.931-19.521
	C258.33,93.89,250.91,84.82,239.4,84.82z M239.4,121.82c-9.569,0-12.38-9.09-12.38-17.5c0-8.4,2.8-17.49,12.38-17.49
	s12.391,9.08,12.391,17.49C251.79,112.74,248.98,121.82,239.4,121.82z M68.9,132.23c0.67-0.46,1.12-0.87,1.38-1.24
	c0.33-0.48,0.49-0.96,0.49-1.44c0-0.71-0.31-1.35-0.92-1.89c-0.59-0.53-1.38-0.8-2.33-0.8c-0.979,0-1.779,0.29-2.39,0.85
	c-0.61,0.58-0.92,1.271-0.92,2.07c0,0.52,0.14,1.02,0.42,1.5c0.22,0.39,0.649,0.85,1.3,1.42c-0.59,0.46-1.01,0.89-1.29,1.3
	c-0.36,0.53-0.54,1.07-0.54,1.62c0,0.7,0.26,1.34,0.771,1.93c0.64,0.721,1.529,1.08,2.649,1.08c1.021,0,1.86-0.3,2.51-0.899
	c0.65-0.61,0.98-1.351,0.98-2.21c0-0.67-0.23-1.32-0.67-1.92C70.07,133.25,69.6,132.79,68.9,132.23z M66.55,128.51
	c0.25-0.229,0.58-0.34,1-0.34c0.41,0,0.72,0.11,0.94,0.33c0.229,0.23,0.329,0.55,0.329,0.97c0,0.341-0.069,0.641-0.199,0.9
	c-0.08,0.16-0.29,0.46-0.811,0.95l-0.96-0.79c-0.22-0.21-0.39-0.43-0.5-0.65c-0.109-0.21-0.16-0.41-0.16-0.609
	C66.19,128.98,66.31,128.73,66.55,128.51z M68.69,137c-0.26,0.24-0.6,0.36-1.05,0.36c-0.439,0-0.79-0.15-1.07-0.46
	c-0.29-0.32-0.43-0.75-0.43-1.311c0-0.43,0.09-0.819,0.271-1.189c0.14-0.28,0.33-0.55,0.59-0.811c0.91,0.74,1.529,1.351,1.84,1.811
	c0.149,0.22,0.22,0.47,0.22,0.76C69.06,136.49,68.94,136.77,68.69,137z M89.01,132.23c0.67-0.46,1.12-0.87,1.38-1.24
	c0.33-0.48,0.49-0.96,0.49-1.44c0-0.71-0.311-1.35-0.92-1.89c-0.601-0.53-1.38-0.8-2.33-0.8c-0.98,0-1.78,0.29-2.39,0.85
	c-0.61,0.58-0.921,1.271-0.921,2.07c0,0.52,0.141,1.02,0.421,1.5c0.22,0.39,0.649,0.85,1.3,1.42c-0.59,0.46-1.011,0.89-1.29,1.3
	c-0.36,0.53-0.54,1.07-0.54,1.62c0,0.7,0.26,1.34,0.77,1.93c0.641,0.721,1.53,1.08,2.65,1.08c1.02,0,1.86-0.3,2.51-0.899
	c0.65-0.61,0.98-1.351,0.98-2.21c0-0.67-0.23-1.32-0.67-1.92C90.18,133.25,89.71,132.79,89.01,132.23z M86.65,128.51
	c0.25-0.229,0.58-0.34,1-0.34c0.41,0,0.721,0.11,0.94,0.33c0.229,0.23,0.33,0.55,0.33,0.97c0,0.341-0.07,0.641-0.2,0.9
	c-0.08,0.16-0.29,0.46-0.81,0.95l-0.96-0.79c-0.221-0.21-0.391-0.43-0.5-0.65c-0.11-0.21-0.16-0.41-0.16-0.609
	C86.3,128.98,86.41,128.73,86.65,128.51z M88.8,137c-0.26,0.24-0.6,0.36-1.05,0.36c-0.44,0-0.79-0.15-1.07-0.46
	c-0.29-0.32-0.43-0.75-0.43-1.311c0-0.43,0.09-0.819,0.27-1.189c0.141-0.28,0.33-0.55,0.59-0.811c0.91,0.74,1.53,1.351,1.841,1.811
	c0.149,0.22,0.22,0.47,0.22,0.76C89.17,136.49,89.04,136.77,88.8,137z M278.06,58.79h-5.35V26.25h5.35v-2.43h-15.91v2.43h5.29V58.8
	h-5.29v2.431h15.91V58.79z M494.31,88.07h5.29v32.51h-5.29V123h15.91v-2.43h-5.351v-32.5h5.351v-2.43h-15.91V88.07z"/>
</svg>
